HIERARCHY
ROOT Hips
{
	OFFSET 0.000000 0.000000 0.000000
	CHANNELS 6 Xposition Yposition Zposition Zrotation Yrotation Xrotation 
	JOINT LHipJoint
	{
		OFFSET 0.000000 0.000000 0.000000
		CHANNELS 3 Zrotation Yrotation Xrotation
		JOINT LeftUpLeg
		{
			OFFSET 1.363060 -1.794630 0.839290
			CHANNELS 3 Zrotation Yrotation Xrotation
			JOINT LeftLeg
			{
				OFFSET 2.448110 -6.726130 0.000000
				CHANNELS 3 Zrotation Yrotation Xrotation
				JOINT LeftFoot
				{
					OFFSET 2.562200 -7.039590 0.000000
					CHANNELS 3 Zrotation Yrotation Xrotation
					JOINT LeftToeBase
					{
						OFFSET 0.157640 -0.433110 2.322550
						CHANNELS 3 Zrotation Yrotation Xrotation
						End Site
						{
							OFFSET 0.000000 0.000000 0.000000
						}
					}
				}
			}
		}
	}
	JOINT RHipJoint
	{
		OFFSET 0.000000 0.000000 0.000000
		CHANNELS 3 Zrotation Yrotation Xrotation
		JOINT RightUpLeg
		{
			OFFSET -1.305520 -1.794630 0.839290
			CHANNELS 3 Zrotation Yrotation Xrotation
			JOINT RightLeg
			{
				OFFSET -2.542530 -6.985550 0.000000
				CHANNELS 3 Zrotation Yrotation Xrotation
				JOINT RightFoot
				{
					OFFSET -2.568260 -7.056230 0.000000
					CHANNELS 3 Zrotation Yrotation Xrotation
					JOINT RightToeBase
					{
						OFFSET -0.164730 -0.452590 2.363150
						CHANNELS 3 Zrotation Yrotation Xrotation
						End Site
						{
							OFFSET 0.000000 0.000000 0.000000
						}
					}
				}
			}
		}
	}
	JOINT LowerBack
	{
		OFFSET 0.000000 0.000000 0.000000
		CHANNELS 3 Zrotation Yrotation Xrotation
		JOINT Spine
		{
			OFFSET 0.028270 2.035590 -0.193380
			CHANNELS 3 Zrotation Yrotation Xrotation
			JOINT Spine1
			{
				OFFSET 0.056720 2.048850 -0.042750
				CHANNELS 3 Zrotation Yrotation Xrotation
				JOINT Neck
				{
					OFFSET 0.000000 0.000000 0.000000
					CHANNELS 3 Zrotation Yrotation Xrotation
					JOINT Neck1
					{
						OFFSET -0.054170 1.746240 0.172020
						CHANNELS 3 Zrotation Yrotation Xrotation
						JOINT Head
						{
							OFFSET 0.104070 1.761360 -0.123970
							CHANNELS 3 Zrotation Yrotation Xrotation
							End Site
							{
								OFFSET 0.000000 0.000000 0.000000
							}
						}
					}
				}
				JOINT LeftShoulder
				{
					OFFSET 0.000000 0.000000 0.000000
					CHANNELS 3 Zrotation Yrotation Xrotation
					JOINT LeftArm
					{
						OFFSET 3.362410 1.200890 -0.311210
						CHANNELS 3 Zrotation Yrotation Xrotation
						JOINT LeftForeArm
						{
							OFFSET 4.983000 -0.000000 -0.000000
							CHANNELS 3 Zrotation Yrotation Xrotation
							JOINT LeftHand
							{
								OFFSET 3.483560 -0.000000 -0.000000
								CHANNELS 3 Zrotation Yrotation Xrotation
								JOINT LeftFingerBase
								{
									OFFSET 0.000000 0.000000 0.000000
									CHANNELS 3 Zrotation Yrotation Xrotation
									JOINT LeftHandIndex1
									{
										OFFSET 0.715260 -0.000000 -0.000000
										CHANNELS 3 Zrotation Yrotation Xrotation
										End Site
										{
											OFFSET 0.000000 0.000000 0.000000
										}
									}
								}
								JOINT LThumb
								{
									OFFSET 0.000000 0.000000 0.000000
									CHANNELS 3 Zrotation Yrotation Xrotation
									End Site
									{
										OFFSET 0.000000 0.000000 0.000000
									}
								}
							}
						}
					}
				}
				JOINT RightShoulder
				{
					OFFSET 0.000000 0.000000 0.000000
					CHANNELS 3 Zrotation Yrotation Xrotation
					JOINT RightArm
					{
						OFFSET -3.136600 1.374050 -0.404650
						CHANNELS 3 Zrotation Yrotation Xrotation
						JOINT RightForeArm
						{
							OFFSET -5.241900 -0.000000 -0.000000
							CHANNELS 3 Zrotation Yrotation Xrotation
							JOINT RightHand
							{
								OFFSET -3.444170 -0.000000 -0.000000
								CHANNELS 3 Zrotation Yrotation Xrotation
								JOINT RightFingerBase
								{
									OFFSET 0.000000 0.000000 0.000000
									CHANNELS 3 Zrotation Yrotation Xrotation
									JOINT RightHandIndex1
									{
										OFFSET -0.622530 -0.000000 -0.000000
										CHANNELS 3 Zrotation Yrotation Xrotation
										End Site
										{
											OFFSET 0.000000 0.000000 0.000000
										}
									}
								}
								JOINT RThumb
								{
									OFFSET 0.000000 0.000000 0.000000
									CHANNELS 3 Zrotation Yrotation Xrotation
									End Site
									{
										OFFSET 0.000000 0.000000 0.000000
									}
								}
							}
						}
					}
				}
			}
		}
	}
}
MOTION
Frames: 12
Frame Time: 0.008333
-1.683207 17.881001 0.072363 -169.774647 80.058008 -145.621375 -9.783934 0.995628 4.152578 -14.070722 -8.080044 -32.355387 -1.779472 -0.692319 17.219761 2.426837 11.718018 -8.407041 0.292600 0.000000 -25.393300 9.688132 -3.729999 -0.072039 9.560626 -6.486695 -14.153117 1.026918 -1.717964 23.965484 -0.771768 -3.682213 20.773000 -1.852099 -0.000000 -67.270200 -3.420975 0.172709 -3.674877 -0.886375 0.371723 -3.368963 -2.535226 0.278453 0.607774 0.779555 -5.930915 -8.453115 0.010758 0.022485 -0.294517 0.000000 0.000000 0.000000 12.843933 8.589479 5.095171 19.241484 -37.692741 -21.256790 -0.550159 -58.970368 0.087250 -10.918902 3.187940 -0.271909 0.216902 0.391511 -0.000000 0.000000 0.000000 0.000000 0.000000 0.000000 0.000000 -6.227765 0.713664 0.348178 -1.402804 57.093229 -12.295774 -0.944455 49.764530 -0.026293 -2.915768 4.980732 -0.137529 -0.028513 -0.469001 0.000000 0.000000 0.000000 0.000000 0.000000 0.000000 0.000000 
-1.438791 17.885445 0.022488 -168.847668 79.876926 -144.753161 -9.724260 1.022483 4.214446 -14.939196 -7.593782 -32.403771 -2.036668 -0.953424 13.973439 2.173212 10.702545 -7.055338 0.583700 0.000000 -27.295700 9.687413 -3.753063 -0.096610 9.481235 -6.343620 -13.772115 0.861562 -1.771832 25.323329 -1.029875 -5.555540 20.379050 -2.692600 -0.000000 -65.362800 -3.421779 0.183661 -3.722509 -0.847038 0.384949 -3.347638 -2.376359 0.284327 0.759788 0.666829 -6.218973 -8.553814 0.105021 0.031735 -0.321597 0.000000 0.000000 0.000000 12.392734 9.058082 5.050240 19.566677 -37.930637 -22.532147 -0.539701 -58.408132 0.089321 -11.096740 3.521357 -0.309902 0.224289 0.387246 -0.000000 0.000000 0.000000 0.000000 0.000000 0.000000 0.000000 -6.654148 0.393347 0.496135 -3.229639 57.360270 -11.152333 -0.854779 50.014068 -0.018370 -1.931780 4.573108 -0.082917 -0.041575 -0.447132 -0.000000 0.000000 0.000000 0.000000 0.000000 0.000000 0.000000 
-1.195974 17.876075 -0.029512 -167.719120 79.677476 -143.768770 -9.697656 1.050887 4.212753 -15.870898 -6.879258 -32.455801 -2.294091 -1.180727 11.126051 1.908572 9.680559 -5.682785 0.828100 -0.000000 -28.747400 9.675251 -3.772297 -0.123979 9.429493 -6.168158 -13.356188 0.697897 -1.833305 26.937968 -1.308230 -7.552619 19.553608 -3.537300 0.000001 -63.422301 -3.356155 0.190688 -3.711649 -0.791191 0.390293 -3.317510 -2.213578 0.282815 0.895468 0.535066 -6.499773 -8.643526 0.198674 0.040771 -0.345870 0.000000 0.000000 0.000000 11.889385 9.514228 4.997124 19.906527 -38.152419 -23.944388 -0.525114 -57.796993 0.090217 -11.083885 3.819079 -0.339302 0.227411 0.385335 -0.000000 0.000000 0.000000 0.000000 0.000000 0.000000 0.000000 -7.105110 0.081853 0.635556 -5.134006 57.606439 -10.114391 -0.774879 50.336716 -0.011656 -1.043569 4.183391 -0.039910 -0.053426 -0.426172 0.000000 0.000000 0.000000 0.000000 0.000000 0.000000 0.000000 
-0.955210 17.852583 -0.083841 -166.386981 79.458899 -142.671411 -9.701266 1.080044 4.148008 -16.842758 -5.978277 -32.526261 -2.539872 -1.363479 8.781048 1.648830 8.673905 -4.396148 1.005900 -0.000001 -29.521800 9.652627 -3.791221 -0.158657 9.403035 -5.983960 -12.890541 0.540370 -1.903856 28.759440 -1.596902 -9.560373 18.412972 -4.307800 0.000001 -61.541199 -3.221863 0.197348 -3.637728 -0.719241 0.391316 -3.278150 -2.049033 0.277662 1.013182 0.382550 -6.767190 -8.720735 0.290014 0.049420 -0.366968 0.000000 0.000000 0.000000 11.339141 9.943779 4.935999 20.266361 -38.352602 -25.492949 -0.505851 -57.147354 0.090069 -10.905394 4.073324 -0.358608 0.226903 0.385808 -0.000000 0.000000 0.000000 0.000000 0.000000 0.000000 0.000000 -7.576765 -0.213198 0.768194 -7.104981 57.808922 -9.214382 -0.704331 50.726582 -0.005975 -0.234470 3.830196 -0.006304 -0.064477 -0.406597 0.000000 0.000000 0.000000 0.000000 0.000000 0.000000 0.000000 
-0.716516 17.814785 -0.140029 -164.976078 79.231407 -141.574349 -9.723163 1.109342 4.044628 -17.809971 -5.033626 -32.593455 -2.754776 -1.501295 6.953696 1.423994 7.797244 -3.286615 1.121700 -0.000000 -29.461500 9.627357 -3.808779 -0.210773 9.364653 -5.835994 -12.389834 0.391913 -1.986593 30.761431 -1.880130 -11.446810 17.052132 -4.928900 -0.000000 -59.702000 -3.046853 0.203627 -3.511071 -0.638391 0.390017 -3.231979 -1.885480 0.270828 1.112368 0.216439 -7.014978 -8.783119 0.376961 0.057464 -0.384152 0.000000 0.000000 0.000000 10.758274 10.330661 4.866559 20.647885 -38.526211 -27.178124 -0.481442 -56.469443 0.089078 -10.598558 4.286805 -0.368619 0.223674 0.388370 -0.000000 0.000000 0.000000 0.000000 0.000000 0.000000 0.000000 -8.053587 -0.486435 0.895697 -9.120929 57.951214 -8.475931 -0.642447 51.167745 -0.001154 0.512895 3.530934 0.020100 -0.075129 -0.388892 0.000000 0.000000 0.000000 0.000000 0.000000 0.000000 0.000000 
-0.479875 17.762603 -0.197718 -163.564604 79.002654 -140.538063 -9.753857 1.135101 3.931566 -18.701144 -4.195762 -32.634155 -2.918606 -1.597258 5.638297 1.262306 7.171421 -2.452034 1.191300 0.000000 -28.452600 9.603686 -3.825375 -0.286962 9.288428 -5.750434 -11.869423 0.253766 -2.083174 32.904909 -2.143459 -13.122127 15.577393 -5.364800 0.000001 -57.990100 -2.852232 0.209432 -3.348850 -0.554434 0.387732 -3.182632 -1.725914 0.263628 1.193029 0.045560 -7.237336 -8.828306 0.457819 0.064706 -0.396567 0.000000 0.000000 0.000000 10.163509 10.662289 4.788082 21.046752 -38.674061 -29.005155 -0.451267 -55.769202 0.087480 -10.204483 4.471434 -0.371435 0.218733 0.392521 -0.000000 0.000000 0.000000 0.000000 0.000000 0.000000 0.000000 -8.521848 -0.732835 1.018571 -11.148796 58.022582 -7.916542 -0.588373 51.635765 0.002997 1.217740 3.294789 0.041704 -0.085749 -0.373373 0.000000 0.000000 0.000000 0.000000 0.000000 0.000000 0.000000 
-0.245215 17.696025 -0.256880 -162.115952 78.768945 -139.510610 -9.791979 1.155189 3.818974 -19.462393 -3.505640 -32.683725 -3.024244 -1.646660 4.912622 1.171355 6.795247 -2.026782 1.212501 0.000000 -26.417901 9.578728 -3.846537 -0.381821 9.183058 -5.722642 -11.341879 0.125645 -2.192460 35.141965 -2.376943 -14.550749 14.097381 -5.623700 -0.000000 -56.554700 -2.633582 0.216458 -3.166798 -0.467429 0.385745 -3.133474 -1.573282 0.257406 1.255445 -0.123505 -7.429940 -8.854196 0.531597 0.070998 -0.403386 0.000000 0.000000 0.000000 9.566988 10.932436 4.699328 21.452654 -38.803909 -30.985759 -0.414321 -55.047727 0.085517 -9.760930 4.644254 -0.369953 0.213041 0.397683 -0.000000 0.000000 0.000000 0.000000 0.000000 0.000000 0.000000 -8.975616 -0.947751 1.136138 -13.150682 58.019215 -7.549228 -0.541009 52.098259 0.006676 1.900644 3.121798 0.060709 -0.096639 -0.360104 0.000000 0.000000 0.000000 0.000000 0.000000 0.000000 0.000000 
-0.012357 17.615569 -0.316779 -160.753372 78.544992 -138.598936 -9.826907 1.164294 3.733797 -20.041816 -3.099984 -32.691566 -3.059698 -1.659208 4.716101 1.171532 6.776822 -2.070163 1.205100 0.000000 -23.442200 9.559317 -3.869050 -0.502411 9.004037 -5.777418 -10.822805 0.005721 -2.314782 37.445646 -2.569156 -15.682934 12.675682 -5.711501 0.000000 -55.426500 -2.425530 0.222386 -2.978670 -0.385924 0.383862 -3.087161 -1.430222 0.251917 1.300060 -0.275324 -7.589865 -8.858757 0.597102 0.076199 -0.403877 0.000000 0.000000 0.000000 8.992602 11.136572 4.597683 21.848608 -38.929943 -33.137681 -0.369224 -54.298556 0.083369 -9.295035 4.821623 -0.366674 0.207381 0.403301 -0.000000 0.000000 0.000000 0.000000 0.000000 0.000000 0.000000 -9.396578 -1.129045 1.247529 -15.088593 57.946434 -7.381858 -0.499222 52.517655 0.010055 2.580021 3.001643 0.078613 -0.108067 -0.349005 0.000000 0.000000 0.000000 0.000000 0.000000 0.000000 0.000000 
0.219489 17.521593 -0.376857 -159.594168 78.341823 -137.876253 -9.846097 1.161658 3.710511 -20.417925 -3.100558 -32.672744 -3.021924 -1.643517 5.016613 1.276999 7.181762 -2.618184 1.173400 -0.000000 -19.705600 9.554409 -3.889656 -0.641214 8.712891 -5.926297 -10.383881 -0.109468 -2.447676 39.819675 -2.712970 -16.494516 11.348129 -5.647000 -0.000001 -54.650400 -2.259202 0.223451 -2.827422 -0.316834 0.379702 -3.052505 -1.296787 0.244350 1.328194 -0.399585 -7.714230 -8.838038 0.654710 0.080229 -0.396360 0.000000 0.000000 0.000000 8.461396 11.270405 4.480246 22.208010 -39.070592 -35.473504 -0.313749 -53.514410 0.081151 -8.823219 5.022418 -0.363595 0.202249 0.408739 0.000000 0.000000 0.000000 0.000000 0.000000 0.000000 0.000000 -9.779072 -1.276436 1.349964 -16.912867 57.820125 -7.397595 -0.461958 52.849708 0.013214 3.259971 2.932870 0.096622 -0.119933 -0.340032 0.000000 0.000000 0.000000 0.000000 0.000000 0.000000 0.000000 
0.450495 17.414963 -0.437162 -158.602309 78.154269 -137.299875 -9.850051 1.151992 3.731777 -20.634892 -3.405995 -32.715315 -2.930325 -1.587587 5.946653 1.468116 7.844467 -3.746612 1.063800 -0.000001 -15.426100 9.562533 -3.911836 -0.782769 8.318050 -6.153560 -10.041229 -0.222722 -2.585926 42.235950 -2.809593 -17.015050 10.151940 -5.473800 -0.000000 -54.280200 -2.127189 0.219448 -2.719029 -0.258224 0.372285 -3.031061 -1.172698 0.233717 1.339203 -0.493290 -7.801657 -8.789799 0.705531 0.083111 -0.380019 0.000000 0.000000 0.000000 7.985636 11.336484 4.343167 22.497037 -39.251049 -38.015119 -0.244602 -52.686307 0.078883 -8.346525 5.250093 -0.360816 0.197907 0.413852 -0.000000 0.000000 0.000000 0.000000 0.000000 0.000000 0.000000 -10.129750 -1.387801 1.440943 -18.592090 57.657473 -7.599091 -0.427836 53.052876 0.016274 3.950986 2.896615 0.115232 -0.132235 -0.332750 0.000000 0.000000 0.000000 0.000000 0.000000 0.000000 0.000000 
0.680603 17.297218 -0.497407 -157.803865 77.993424 -136.902780 -9.836374 1.137003 3.779792 -20.743623 -3.942763 -32.830479 -2.801704 -1.488147 7.522131 1.730266 8.662582 -5.442341 0.833800 -0.000000 -10.923400 9.587790 -3.933329 -0.921464 7.796965 -6.448672 -9.788472 -0.336710 -2.726479 44.670989 -2.862446 -17.273331 9.095589 -5.224801 0.000000 -54.268501 -2.042007 0.210298 -2.643857 -0.212525 0.362358 -3.021042 -1.057518 0.220865 1.331437 -0.550907 -7.852264 -8.712475 0.750554 0.084897 -0.354504 0.000000 0.000000 0.000000 7.582177 11.339160 4.181610 22.677626 -39.499072 -40.780988 -0.157894 -51.804774 0.076431 -7.847932 5.484840 -0.355639 0.194248 0.419039 -0.000000 0.000000 0.000000 0.000000 0.000000 0.000000 0.000000 -10.449359 -1.461355 1.518485 -20.098810 57.480836 -7.986895 -0.395671 53.093363 0.019339 4.659886 2.861993 0.133844 -0.144954 -0.326545 0.000000 0.000000 0.000000 0.000000 0.000000 0.000000 0.000000 
0.910117 17.169851 -0.557838 -157.173830 77.855888 -136.647782 -9.808525 1.123652 3.837528 -20.807119 -4.595230 -33.098991 -2.659093 -1.335719 9.807909 2.038094 9.486208 -7.674868 0.442200 0.000000 -6.463900 9.630674 -3.954988 -1.038803 7.160900 -6.786820 -9.659029 -0.453773 -2.864059 47.119742 -2.879210 -17.319670 8.170810 -4.932000 0.000000 -54.564700 -1.994811 0.196130 -2.613306 -0.176636 0.349319 -3.025246 -0.948088 0.205025 1.303268 -0.578716 -7.864896 -8.603009 0.792454 0.085720 -0.318786 0.000000 0.000000 0.000000 7.260979 11.277819 3.991239 22.702154 -39.835913 -43.773178 -0.048757 -50.874575 0.073622 -7.308508 5.700789 -0.345363 0.191083 0.424843 -0.000000 0.000000 0.000000 0.000000 0.000000 0.000000 0.000000 -10.758377 -1.495329 1.580133 -21.409159 57.314863 -8.551641 -0.364229 52.938365 0.022413 5.378048 2.814533 0.151659 -0.157715 -0.320984 0.000000 0.000000 0.000000 0.000000 0.000000 0.000000 0.000000 
